<ttFont>
          <CharString index="0">
            315 rmoveto
            -30 125 -285 30 285 125 30 -125 return
          </CharString>
        <CharString name=".notdef">
          107 50 -200 rmoveto
          400 1200 -400 -1200 hlineto
          50 50 rmoveto
          1100 300 -1100 -300 vlineto
          endchar
        </CharString>
        <CharString name="A">
          7 endchar
        </CharString>
        <CharString name="B">
          7 endchar
        </CharString>
        <CharString name="C">
          7 endchar
        </CharString>
        <CharString name="D">
          7 endchar
        </CharString>
        <CharString name="E">
          7 endchar
        </CharString>
        <CharString name="F">
          7 endchar
        </CharString>
        <CharString name="G">
          7 endchar
        </CharString>
        <CharString name="H">
          7 60 -107 callsubr
          485 -30 -485 vlineto
          endchar
        </CharString>
        <CharString name="I">
          7 endchar
        </CharString>
        <CharString name="J">
          7 endchar
        </CharString>
        <CharString name="K">
          7 endchar
        </CharString>
        <CharString name="L">
          7 endchar
        </CharString>
        <CharString name="M">
          7 endchar
        </CharString>
        <CharString name="N">
          7 endchar
        </CharString>
        <CharString name="O">
          7 endchar
        </CharString>
        <CharString name="P">
          7 endchar
        </CharString>
        <CharString name="Q">
          7 endchar
        </CharString>
        <CharString name="R">
          7 endchar
        </CharString>
        <CharString name="S">
          7 endchar
        </CharString>
        <CharString name="T">
          7 endchar
        </CharString>
        <CharString name="U">
          7 endchar
        </CharString>
        <CharString name="V">
          7 endchar
        </CharString>
        <CharString name="W">
          7 endchar
        </CharString>
        <CharString name="X">
          7 endchar
        </CharString>
        <CharString name="Y">
          7 endchar
        </CharString>
        <CharString name="Z">
          7 endchar
        </CharString>
        <CharString name="a">
          endchar
        </CharString>
        <CharString name="b">
          endchar
        </CharString>
        <CharString name="c">
          endchar
        </CharString>
        <CharString name="comma">
          -233 endchar
        </CharString>
        <CharString name="d">
          endchar
        </CharString>
        <CharString name="e">
          endchar
        </CharString>
        <CharString name="eight">
          -3 endchar
        </CharString>
        <CharString name="f">
          endchar
        </CharString>
        <CharString name="five">
          -3 endchar
        </CharString>
        <CharString name="four">
          -3 endchar
        </CharString>
        <CharString name="g">
          endchar
        </CharString>
        <CharString name="h">
          endchar
        </CharString>
        <CharString name="hyphen">
          -233 endchar
        </CharString>
        <CharString name="i">
          endchar
        </CharString>
        <CharString name="j">
          endchar
        </CharString>
        <CharString name="k">
          endchar
        </CharString>
        <CharString name="l">
          endchar
        </CharString>
        <CharString name="m">
          endchar
        </CharString>
        <CharString name="n">
          endchar
        </CharString>
        <CharString name="nine">
          -3 endchar
        </CharString>
        <CharString name="o">
          endchar
        </CharString>
        <CharString name="one">
          -3 endchar
        </CharString>
        <CharString name="p">
          endchar
        </CharString>
        <CharString name="period">
          -233 endchar
        </CharString>
        <CharString name="q">
          endchar
        </CharString>
        <CharString name="r">
          endchar
        </CharString>
        <CharString name="s">
          endchar
        </CharString>
        <CharString name="seven">
          -3 endchar
        </CharString>
        <CharString name="six">
          -3 endchar
        </CharString>
        <CharString name="space">
          -233 endchar
        </CharString>
        <CharString name="t">
          endchar
        </CharString>
        <CharString name="three">
          -3 endchar
        </CharString>
        <CharString name="two">
          -3 endchar
        </CharString>
        <CharString name="u">
          endchar
        </CharString>
        <CharString name="uni00A0">
          -233 endchar
        </CharString>
        <CharString name="v">
          endchar
        </CharString>
        <CharString name="w">
          endchar
        </CharString>
        <CharString name="x">
          50 -107 callsubr
          285 -30 -285 vlineto
          endchar
        </CharString>
        <CharString name="y">
          endchar
        </CharString>
        <CharString name="z">
          endchar
        </CharString>
        <CharString name="zero">
          -3 endchar
        </CharString>
</ttFont>
